# xmcd
#
# Track frame offsets:
#	150
#	20087
#	32250
#	46161
#	60807
#	71420
#	84495
#	100255
#	114226
#	127841
#	141773
#	155938
#	175673
#	187804
#	203220
#	216660
#	229635
#	241376
#	264405
#	285589
#	301625
#	310520
#	322178
#	330763
#	343069
#
# Disc length: 4755 seconds
#
# Revision: 1
# Processed by: cddbd v1.5.2PL0 Copyright (c) Steve Scherf et al.
# Submitted via: EZCDAudioConverter 1.3.4.1
#
DISCID=4c129119
DTITLE=Marta Kubisová - Ne! The Soul Of Marta Kubisová
DYEAR=2009
DGENRE=
TTITLE0=Tak Dej Se K Nám A Projdem Svet
TTITLE1=Svlikám Lásku
TTITLE2=Já Tu S Tvárí Nemennou
TTITLE3=Bily Stul
TTITLE4=Tvuj Krém, Tvuj Nuz, Tvuj Ruzenec (You Came, You Saw, You Conquered)
TTITLE5=Kdo Ti Radu Dá
TTITLE6=Tajga Blues '69
TTITLE7=Hare Krisna (Hare Krishna)
TTITLE8=Chci Pravo Trubky Mit
TTITLE9=Legendy
TTITLE10=Já Cestu K Tobe Najdu Si
TTITLE11=Tys Bejval Mámin Hodnej Syn
TTITLE12=Ne
TTITLE13=Jakoby Nic
TTITLE14=Nepis Dál
TTITLE15=Ten Zlej Páv
TTITLE16=Modrej Vres
TTITLE17=Zlý Dlouhý Pust
TTITLE18=Ten Druhý V Nás
TTITLE19=Balada O Kornetovi A Divce
TTITLE20=Na Co Te Mam
TTITLE21=Vrba
TTITLE22=Pojd'te, Pejskové
TTITLE23=Nejsi Sam, Kdo Doufá (Face It Girl, It's Over)
TTITLE24=Cervencové Ráno
EXTD=
EXTT0=
EXTT1=
EXTT2=
EXTT3=
EXTT4=
EXTT5=
EXTT6=
EXTT7=
EXTT8=
EXTT9=
EXTT10=
EXTT11=
EXTT12=
EXTT13=
EXTT14=
EXTT15=
EXTT16=
EXTT17=
EXTT18=
EXTT19=
EXTT20=
EXTT21=
EXTT22=
EXTT23=
EXTT24=
PLAYORDER=
